PathFileType	4	(X/Y/Z)	D:\Share\Shared_Data\Ergonomics\Sit To Stand Pertubation\S2\Perturbed.trc
DataRate	CameraRate	NumFrames	NumMarkers	Units	OrigDataRate	OrigDataStartFrame	OrigNumFrames	
100	100	11	18	m	100	8816	201
Frame#	Time	R_Toe			R_ASIS			R_Pelvis			V_Sacral			L_Pelvis			L_ASIS			Clavical			R_Acromium			L_Acromium			Sternum			Torso			R_Thigh_Med			R_Thigh_Lat			R_Thigh			R_Shank_Med			R_Shank_Lat			R_Shank			R_Heel			
		X1	Y1	Z1	X2	Y2	Z2	X3	Y3	Z3	X4	Y4	Z4	X5	Y5	Z5	X6	Y6	Z6	X7	Y7	Z7	X8	Y8	Z8	X9	Y9	Z9	X10	Y10	Z10	X11	Y11	Z11	X12	Y12	Z12	X13	Y13	Z13	X14	Y14	Z14	X15	Y15	Z15	X16	Y16	Z16	X17	Y17	Z17	X18	Y18	Z18	

8816	88.15	0.43185434	0.066386009	0.14651218	0.29249835	0.98721912	0.13007414	0.22262747	1.0075768	0.17772711	0.073799248	1.0226878	0.024160109	0.16939906	1.0180558	-0.16178778	0.26383817	1.0037439	-0.13906525	0.41225372	1.3903632	-0.010568111	0.33859024	1.4377727	0.20015221	0.30975705	1.4507965	-0.19048152	0.41530878	1.2270066	-0.01354445	0.4072149	1.3528973	-0.12487412	0.38384412	0.49452747	0.10678359	0.36531302	0.51633655	0.20050227	0.38468234	0.7000152	0.17082486	0.29745786	0.10947106	0.10980688	0.27648288	0.098597008	0.20229811	0.329241	0.36714499	0.22504631	0.19417561	0.059537666	0.14867012
8817	88.16	0.43184576	0.06643988	0.14651709	0.29643338	0.99083972	0.13003284	0.22621086	1.0102817	0.17771069	0.07750222	1.0252064	0.024173674	0.17278152	1.0207591	-0.16177769	0.26707443	1.0071666	-0.13924321	0.41158228	1.3959049	-0.010426553	0.33745917	1.4422759	0.20047722	0.30798685	1.4553801	-0.19012961	0.4166066	1.2324832	-0.013720407	0.40671991	1.3584893	-0.12484811	0.38162753	0.49488654	0.10612659	0.36326331	0.5169201	0.19979448	0.38532733	0.69991479	0.17031155	0.29733768	0.10941322	0.10980138	0.27639529	0.098615349	0.20229317	0.32752783	0.36764182	0.22456549	0.19414418	0.059631321	0.14878113
8818	88.17	0.43183829	0.066469414	0.14651591	0.30030783	0.99424615	0.13000534	0.2297532	1.0127817	0.17769649	0.081148506	1.0274977	0.024193546	0.17612766	1.0232445	-0.16176961	0.27031183	1.010382	-0.13938342	0.41086768	1.4011654	-0.010290627	0.33629285	1.4465037	0.20079384	0.30617841	1.4596505	-0.18978296	0.4178847	1.2377035	-0.013893266	0.40617593	1.3637975	-0.12482627	0.37948315	0.49523297	0.10548509	0.36125418	0.51747583	0.19909282	0.38593616	0.69976599	0.16984012	0.29731714	0.10938638	0.10979646	0.27629871	0.098628067	0.20227213	0.32584982	0.36810696	0.22408955	0.194133	0.059697964	0.14887596
8819	88.18	0.43183231	0.066479767	0.14651537	0.30411627	0.99743921	0.12999646	0.23325731	1.0150804	0.17768805	0.084733345	1.0295645	0.024220657	0.17943478	1.0255175	-0.16177016	0.27359479	1.0134323	-0.13947701	0.4101087	1.4061484	-0.010161407	0.33509052	1.4504618	0.20110191	0.30433688	1.4636119	-0.18944551	0.41911823	1.2426698	-0.014060858	0.40558667	1.3688218	-0.12481006	0.3774169	0.49556763	0.10485637	0.35929523	0.51800153	0.19838765	0.38650748	0.69957062	0.16941396	0.29739664	0.10938992	0.10978799	0.27619846	0.098637909	0.20223187	0.32421762	0.36854059	0.22361255	0.19413657	0.059739586	0.14894797
8820	88.19	0.4318284	0.066474762	0.14651831	0.30785294	1.0004227	0.13001044	0.23672395	1.0171844	0.17768883	0.088252037	1.0314136	0.024254938	0.18269881	1.0275836	-0.16177991	0.27696735	1.0163719	-0.13951942	0.40930679	1.4108589	-0.010040024	0.33385278	1.4541576	0.20140013	0.30247012	1.4672737	-0.18912222	0.42027658	1.247385	-0.014221851	0.40495633	1.3735641	-0.12480118	0.37542746	0.49589062	0.10423227	0.35739368	0.51849487	0.19766711	0.38703787	0.69933008	0.16903275	0.29754865	0.10941399	0.10977194	0.2761008	0.098648087	0.20217336	0.32264142	0.36894684	0.22312509	0.1941494	0.059760998	0.14899623
8821	88.2	0.43182675	0.06645826	0.14652461	0.31151105	1.0032043	0.13005074	0.24015146	1.0191039	0.17770163	0.0917006	1.033054	0.024294937	0.18591405	1.0294495	-0.16179225	0.28046259	1.0192504	-0.1395098	0.40846658	1.4153037	-0.009927659	0.3325806	1.4575989	0.20168549	0.30058859	1.47065	-0.18882005	0.42133759	1.2518531	-0.014375059	0.40429022	1.3780286	-0.12480116	0.3735043	0.49620084	0.10360139	0.35555536	0.51895471	0.19691904	0.38752792	0.6990459	0.16869106	0.2977261	0.10944287	0.10974536	0.2760112	0.098661652	0.20210176	0.32112695	0.3693306	0.2226171	0.19416685	0.059767803	0.149024
8822	88.21	0.43182703	0.066434753	0.14653212	0.31508334	1.0057957	0.13012001	0.24353226	1.0208524	0.17773061	0.095075783	1.0344978	0.024338312	0.18907404	1.0311257	-0.16179684	0.28408157	1.0220798	-0.13945245	0.40759598	1.4194913	-0.009825655	0.33127502	1.4607959	0.20195407	0.2987037	1.4737573	-0.18854649	0.42229492	1.2560797	-0.014519322	0.40359457	1.3822203	-0.124811	0.37162823	0.49649536	0.10295158	0.35378467	0.51938068	0.19613242	0.38798825	0.69871954	0.16837624	0.29788586	0.10946318	0.10970692	0.27593341	0.098680885	0.20202469	0.31967279	0.3696951	0.22208009	0.19418483	0.0597649	0.14903629
8823	88.22	0.43182904	0.066409149	0.14653758	0.31856326	1.0082108	0.13022017	0.24685216	1.0224447	0.17778162	0.098375542	1.035759	0.024382803	0.19217358	1.0326257	-0.16178477	0.28777072	1.0248185	-0.139362	0.40670483	1.4234301	-0.0097354279	0.32993719	1.4637592	0.20220229	0.29682587	1.4766085	-0.18830807	0.42315521	1.2600721	-0.014654215	0.40287708	1.3861464	-0.12483108	0.36977521	0.49676956	0.10227089	0.35208548	0.51977289	0.19529872	0.38843622	0.69835321	0.1680688	0.29800406	0.10946846	0.10965692	0.27586893	0.0987071	0.20194838	0.31827304	0.37004224	0.22150871	0.19419997	0.059755905	0.14903845
8824	88.23	0.43183231	0.066385742	0.14653786	0.32194604	1.0104634	0.13035217	0.25009624	1.0238951	0.17785991	0.10159969	1.0368523	0.024425692	0.19521156	1.0339639	-0.16174934	0.29143597	1.0273929	-0.13926099	0.40580136	1.4271281	-0.0096581287	0.32856824	1.4665017	0.20242834	0.29496402	1.4792128	-0.18810931	0.42393246	1.2638372	-0.014780287	0.40214621	1.3898137	-0.12486102	0.36792447	0.49701794	0.10154749	0.3504603	0.52013184	0.19441237	0.38888705	0.69794983	0.16774535	0.29807388	0.10945786	0.10959656	0.27581754	0.098740967	0.20187488	0.31692163	0.37037228	0.22090163	0.19420969	0.059743103	0.14903525
8825	88.24	0.43183661	0.066367142	0.14653058	0.32523248	1.0125666	0.13051588	0.25325612	1.025217	0.17796814	0.10475031	1.0377937	0.024463531	0.19819209	1.0351544	-0.16168472	0.29499338	1.0297405	-0.13916945	0.40488934	1.4305917	-0.009594327	0.32716937	1.4690364	0.20263181	0.29312622	1.4815775	-0.18795157	0.42464282	1.2673816	-0.014898138	0.40141071	1.3932314	-0.12489935	0.36606708	0.49723724	0.10077079	0.34890985	0.52045789	0.19347137	0.38934918	0.69751355	0.16738341	0.29809885	0.10943336	0.10952724	0.27577798	0.098782341	0.20180147	0.31561566	0.37068378	0.22026157	0.19421257	0.059727676	0.14903058
8826	88.25	0.43184158	0.066353737	0.14651462	0.32843207	1.0145315	0.13070938	0.25633221	1.0264215	0.17810707	0.10783168	1.0385989	0.024493395	0.20112338	1.03621	-0.16158517	0.29840079	1.0318313	-0.13909898	0.40396906	1.4338276	-0.0095437164	0.3257413	1.4713763	0.20281314	0.29132022	1.4837101	-0.18783327	0.4253002	1.2707112	-0.015006974	0.40067786	1.3964083	-0.12494378	0.36420505	0.49742816	0.099934212	0.34743222	0.52075201	0.19247742	0.38982626	0.69704932	0.16696513	0.29808762	0.10939791	0.10944999	0.27574805	0.098830032	0.20172311	0.31435532	0.3709743	0.21959393	0.1942083	0.059710365	0.1490271
